<svg xmlns="http://www.w3.org/2000/svg" width="1800.264" height="238.295"><g fill="#FFF"><path d="M0 0h106.5L117 77h4l10.5-77H235l-64 175.5V238H62.5v-61.5zM1565.264 0h106.5l10.5 77h4l10.5-77h103.5l-64 175.5V238h-108.5v-61.5zM537.629.5h175.357v75.723H646.23v15.609h60.113v61.442h-60.446v85.021H537.629zM990.468 237.797h87.678l4.65-94.818h2.989l8.635 94.818h87.679l9.964-94.818h3.321l3.984 94.818h92.329L1281.069.5h-128.861l-11.126 86.018h-3.819L1125.308.5H999.103zM1310.628.5h108.934v237.297h-108.934zM1438.36.5v237.297h145.468v-76.22h-36.866V.5zM462.251 86.293V24.73l-.05.002C461.188.666 433.828.666 433.828.666H281.875s-27.36 0-28.373 24.066v189.624c.839 19.914 19.702 23.348 26.192 23.939h87.05v-8.803h15.959v8.803h79.548V109.601h-94.242v69.921h-12.666V86.293h106.908zM925.041.5h-169.38l-45.332 237.297h109.288l6.975-34.707h28.563l7.306 34.707h108.912L925.041.5zm-77.423 138.667h-13.535V73.546h13.535v65.621z"/></g></svg>