<svg xmlns="http://www.w3.org/2000/svg" width="1566.774" height="250.212"><g fill="#FFF"><path d="M764.233.748h114.52v249.465h-114.52zM556.286.748v82.847h37.639v166.617h114.146V81.55h37.232V.748zM1118.79 221.206V106.624L1002.462 72.89h116.328V0H932.193l-.005.014s-33.274 0-34.505 29.236v121.689l88.159 26.384h-88.159v72.89h186.655c.001-.001 33.052-.008 34.452-29.007zM1137.721.748v82.847h37.638v166.617h114.146V81.55h37.232V.748zM1566.774 221.206V106.624L1450.446 72.89h116.328V0h-186.597l-.005.014s-33.274 0-34.505 29.236v121.689l88.159 26.384h-88.159v72.89h186.655c.001-.001 33.052-.008 34.452-29.007zM502.819.019L502.814 0H293.619v250.213h110.79v-72.89h11.078l18.466 72.89h103.402l-22.157-72.89 22.157-18.998V29.257C536.125.019 502.819.019 502.819.019zm-87.585 111.699h-13.542V70.786h13.542v40.932zM225.47 1.027H47.604L0 250.212h114.764l7.323-36.445h29.994l7.671 36.445h114.37L225.47 1.027zm-81.303 145.614h-14.213V77.732h14.213v68.909z"/></g></svg>