<svg xmlns="http://www.w3.org/2000/svg" width="1194.863" height="202.881"><g fill="#FFF"><path d="M395.363.104v67.252h30.554v135.255h92.661V65.695h30.223V.104zM779.787 24.016C778.79.352 751.662.104 751.662.104H595.815s-27.087.248-28.084 23.912v-.01 154.951-.01c.997 23.664 28.084 23.664 28.084 23.664h156.136s26.263-.017 27.836-22.865V24.004v.012zM679.653 143.619h-11.788V59.096h11.788v84.523zM1194.863 179.135V86.398l-94.15-27.303h94.15V.104h-151.021l-.004.01s-26.93 0-27.927 23.663v98.488l71.353 21.354h-71.353v58.992h151.069s26.749-.006 27.883-23.476zM968.033.119l-.005-.016H798.717v202.508h89.668v-58.992h8.966l14.945 58.992h83.688l-17.934-58.992 17.934-15.377V23.781C994.988.119 968.033.119 968.033.119zm-70.887 90.402h-10.96V57.393h10.96v33.128zM376.433 77.32V.104H268.837S241.936.186 240.94 23.85l-.01-.001v155.216c1.098 23.521 27.887 23.525 27.887 23.525l.007.021h107.609v-70.243H339.07V77.32h37.363zM183.572 0H38.758L0 202.881h93.438l5.963-29.672h24.42l6.246 29.672h93.117L183.572 0zm-66.195 118.557h-11.571V62.452h11.571v56.105z"/></g></svg>