<svg xmlns="http://www.w3.org/2000/svg" width="178.017" height="537.788"><g fill="#FFF"><path d="M23.022 357.924H155.66V415.2h-50.493v11.806h45.469v46.471h-45.72v64.311H23.022zM0 0h80.676l7.954 58.329h3.029L99.614 0h78.403l-48.481 132.944v47.345H47.345v-46.587zM146.262 249.579V215.81l-.027.001c-.556-13.202-15.563-13.202-15.563-13.202H47.318s-15.008 0-15.563 13.202v104.016c.46 10.924 10.808 12.807 14.367 13.131h47.751v-4.828h8.754v4.828h43.635v-70.594H94.566v38.355h-6.948v-51.141h58.644z"/></g></svg>