<svg xmlns="http://www.w3.org/2000/svg" width="964.892" height="83.205"><path d="M107.702 4.3l23.102 74.504h-18.801l-4.3-17.101H85.701l-4.3 17.101H46.603L29.001 48.303 20.9 59.304v19.501H3V4.3h17.901v29.501h.3L42.302 4.3h19.601L39.402 34.202 64.19 75.608 86.301 4.3h21.401M89.101 47.903h15.201l-1.6-6.3c-2-7.4-3.9-16.301-5.9-23.901h-.4c-1.8 7.8-3.8 16.501-5.7 23.901l-1.601 6.3M109.913 1.3H84.09l-.654 2.112-20.122 64.892-20.301-33.911L64.3 6.104 67.915 1.3H40.76l-.897 1.255-15.962 22.316V1.3H0v80.504h23.901V60.289l4.795-6.513 15.308 26.528.866 1.5h38.869l.57-2.269 3.73-14.833h17.324l3.729 14.833.571 2.269h25.211l-1.206-3.889-23.101-74.503-.654-2.112zM92.958 44.903l.651-2.562a659.35 659.35 0 003.069-12.571c1.014 4.266 2.063 8.675 3.127 12.615l.639 2.518h-7.486zM197.702 4.3v74.504h-18.201L161.1 42.902l-7.301-16.301h-.5c.8 8.3 2.3 18.501 2.3 27.501v24.702h-17.001V4.3H156.8l18.501 35.702 7.3 16.501h.5c-.9-7.9-2.4-18.601-2.4-27.502V4.3h17.001m3-3h-23.001v27.701c0 3.202.191 6.642.476 10.087l-.132-.3-.038-.084-.042-.082L159.463 2.92l-.839-1.62H135.599v80.504H158.6V54.103c0-3.42-.213-7.023-.519-10.602l.281.628.032.072.036.07 18.401 35.902.836 1.632h23.034V1.3h.001zM248.2 3c10.9 0 18.701 4.601 23.801 9.701l-9.4 11.401c-3.7-3.3-7.601-5.801-13.801-5.801-11 0-18.901 8.601-18.901 23.102 0 14.801 6.601 23.401 20.501 23.401 2.6 0 5.4-.7 7-1.9V50.903h-11.8V36.302h27.702v34.802c-5.201 5-14.401 9.101-24.802 9.101-20.601 0-36.902-13-36.902-38.202C211.598 17.201 228.299 3 248.2 3m0-3c-10.824 0-20.727 3.934-27.884 11.077-7.667 7.652-11.719 18.346-11.719 30.925 0 12.761 4.027 23.381 11.646 30.713 7.13 6.862 16.901 10.489 28.257 10.489 10.206 0 20.506-3.808 26.881-9.938l.921-.885V33.302H242.6v20.601h11.801v7.216c-1.037.39-2.47.685-4 .685-11.777 0-17.501-6.673-17.501-20.401 0-12.399 6.093-20.102 15.901-20.102 5.125 0 8.316 1.928 11.804 5.04l2.328 2.076 1.984-2.407 9.4-11.4 1.734-2.103-1.927-1.927C269.296 5.753 260.881 0 248.2 0zM336.297 3c8.601 0 17.701 3.3 24.201 9.801l-8.9 11.201c-4.9-3.7-9.501-5.701-15.301-5.701-5.5 0-8.801 2.2-8.801 6.101 0 4.2 4.601 5.8 11.201 8.4l9.3 3.7c9.201 3.7 14.701 9.901 14.701 20.401 0 12.401-10.4 23.301-28.401 23.301-9.701 0-20.102-3.6-27.802-10.701l10.2-12.301c5.2 4.5 12.101 7.601 18.001 7.601 6.601 0 9.701-2.5 9.701-6.5 0-4.3-4.101-5.7-10.501-8.4l-9.5-4c-7.801-3.1-15.102-9.601-15.102-20.401C309.295 13 320.496 3 336.297 3m0-3c-17.104 0-30.002 10.963-30.002 25.501 0 10.436 6.184 18.882 16.965 23.178l9.473 3.989 1.285.539c5.807 2.429 7.38 3.337 7.38 5.096 0 .866 0 3.5-6.701 3.5-4.921 0-11.216-2.696-16.038-6.869l-2.317-2.005-1.956 2.358-10.2 12.301-1.816 2.191 2.092 1.93c7.922 7.305 18.797 11.495 29.835 11.495 9.252 0 17.183-2.68 22.935-7.75 5.46-4.813 8.467-11.401 8.467-18.552 0-10.959-5.579-18.76-16.582-23.185l-9.31-3.705-.922-.362c-5.357-2.102-8.388-3.382-8.388-5.25 0-2.563 3.154-3.101 5.801-3.101 4.729 0 8.764 1.523 13.493 5.095l2.335 1.764 1.821-2.292 8.9-11.201 1.665-2.095-1.892-1.892C355.833 3.893 346.239 0 336.297 0zM422.298 4.3v14.901h-29.302v13.801h24.901v15.001h-24.901v15.801h30.401v15.001h-48.303V4.3h47.204m3-3h-53.203v80.504h54.303v-21h-30.401v-9.801h24.901V30.002h-24.901v-7.801h29.302V1.3h-.001zM497.697 4.3v39.502c0 25.102-10.001 36.402-29.802 36.402-19.901 0-30.202-11.3-30.202-36.402V4.3h17.802v41.402c0 14.101 4.2 19.101 12.4 19.101 8.101 0 12.601-5 12.601-19.101V4.3h17.201m3-3h-23.201v44.402c0 14.15-4.614 16.101-9.601 16.101-4.548 0-9.4-1.244-9.4-16.101V1.3h-23.802v42.502c0 26.145 11.171 39.402 33.202 39.402 10.881 0 19.167-3.319 24.63-9.866 5.499-6.59 8.172-16.252 8.172-29.536V1.3zM573.496 4.3v74.504h-18.201l-18.401-35.902-7.3-16.301h-.5c.8 8.3 2.3 18.501 2.3 27.501v24.702h-17.001V4.3h18.201l18.501 35.702 7.301 16.501h.5c-.9-7.9-2.4-18.601-2.4-27.502V4.3h17m3-3h-23.001v27.701c0 3.202.19 6.642.476 10.087l-.133-.3-.037-.084-.042-.082L535.258 2.92l-.84-1.62H511.393v80.504h23.001V54.103c0-3.42-.213-7.022-.519-10.601l.28.626.032.072.036.07 18.401 35.902.837 1.632h23.034V1.3h.001zM623.993 3c10.9 0 18.701 4.601 23.801 9.701l-9.4 11.401c-3.7-3.3-7.601-5.801-13.801-5.801-11 0-18.901 8.601-18.901 23.102 0 14.801 6.601 23.401 20.502 23.401 2.6 0 5.4-.7 7-1.9V50.903h-11.801V36.302h27.702v34.802c-5.2 5-14.401 9.101-24.802 9.101-20.602 0-36.902-13-36.902-38.202C587.391 17.201 604.092 3 623.993 3m0-3c-10.824 0-20.727 3.934-27.884 11.077-7.666 7.652-11.719 18.346-11.719 30.925 0 12.761 4.026 23.381 11.646 30.713 7.13 6.862 16.9 10.489 28.257 10.489 10.206 0 20.506-3.808 26.881-9.938l.921-.885V33.302h-33.702v20.601h11.801v7.216c-1.037.39-2.47.685-4 .685-11.777 0-17.502-6.673-17.502-20.401 0-12.211 6.241-20.102 15.901-20.102 5.124 0 8.315 1.928 11.804 5.04l2.327 2.076 1.984-2.407 9.4-11.4 1.734-2.103-1.928-1.927C645.09 5.753 636.675 0 623.993 0zM740.192 4.3l-22.501 48.203v26.302H699.89V52.503L677.488 4.3h19.002l6.2 16.601c2 5.6 3.9 10.8 6 16.601h.4c2.1-5.8 4.1-11 6.2-16.601l6.2-16.601h18.702m4.711-3h-25.494l-.729 1.95-6.2 16.601a2071.32 2071.32 0 01-1.768 4.691c-.609 1.614-1.206 3.192-1.799 4.775a1868.6 1868.6 0 01-3.398-9.426L699.301 3.25l-.729-1.95h-25.786l1.981 4.264 22.122 47.602v28.639h23.802V53.169l22.22-47.6 1.992-4.269zM776.291 3c20.301 0 34.102 13.901 34.102 38.202 0 24.402-13.801 39.002-34.102 39.002-20.302 0-34.103-14.601-34.103-39.002C742.188 16.801 755.989 3 776.291 3m0 61.804c9.8 0 15.9-9.2 15.9-23.602 0-14.4-6.101-22.901-15.9-22.901-9.801 0-15.802 8.501-15.802 22.901 0 14.402 6.001 23.602 15.802 23.602m0-64.804c-11 0-20.291 3.775-26.871 10.918-6.693 7.267-10.231 17.738-10.231 30.284 0 25.516 14.563 42.002 37.103 42.002 22.538 0 37.102-16.487 37.102-42.002 0-12.507-3.537-22.965-10.229-30.245C796.572 3.789 787.28 0 776.291 0zm0 61.804c-9.438 0-12.802-10.642-12.802-20.602 0-5.984 1.247-19.901 12.802-19.901 8.078 0 12.9 7.44 12.9 19.901 0 9.96-3.388 20.602-12.9 20.602zM854.891 3c20.301 0 34.102 13.901 34.102 38.202 0 24.402-13.801 39.002-34.102 39.002-20.302 0-34.103-14.601-34.103-39.002C820.788 16.801 834.589 3 854.891 3m0 61.804c9.8 0 15.9-9.2 15.9-23.602 0-14.4-6.101-22.901-15.9-22.901-9.801 0-15.802 8.501-15.802 22.901 0 14.402 6.001 23.602 15.802 23.602m0-64.804c-11 0-20.291 3.775-26.871 10.918-6.693 7.267-10.231 17.738-10.231 30.284 0 25.516 14.563 42.002 37.103 42.002 22.538 0 37.102-16.487 37.102-42.002 0-12.507-3.537-22.965-10.229-30.245C875.172 3.789 865.88 0 854.891 0zm0 61.804c-9.438 0-12.802-10.642-12.802-20.602 0-5.984 1.247-19.901 12.802-19.901 8.078 0 12.9 7.44 12.9 19.901 0 9.96-3.389 20.602-12.9 20.602zM961.892 4.3v74.504H943.69l-18.401-35.902-7.3-16.301h-.5c.8 8.3 2.3 18.501 2.3 27.501v24.702h-17.001V4.3h18.201l18.501 35.702 7.301 16.501h.5c-.9-7.9-2.4-18.601-2.4-27.502V4.3h17.001m3-3h-23.001v27.701c0 3.202.19 6.642.476 10.087l-.133-.3-.037-.084-.043-.082-18.5-35.702-.84-1.62H899.789v80.504h23.001V54.103c0-3.42-.213-7.022-.519-10.601l.28.626.032.072.036.07 18.401 35.902.836 1.632h23.035V1.3h.001z"/></svg>