<svg xmlns="http://www.w3.org/2000/svg" width="484.933" height="104.674"><g fill="#FFF"><path d="M67.497 3v64.092c0 18.981-10.011 34.582-31.721 34.582-15.081 0-24.961-5.851-31.852-17.811l15.73-11.831c3.38 6.631 8.32 9.62 13.001 9.62 7.54 0 11.57-3.77 11.57-16.38V3h23.272m3-3h-29.27V65.272c0 12.373-3.881 13.38-8.57 13.38-3.978 0-7.742-2.909-10.328-7.982l-1.622-3.182-2.854 2.146L2.121 81.466 0 83.061l1.325 2.301c7.592 13.176 18.538 19.313 34.451 19.313 11.088 0 20.186-3.892 26.309-11.255 5.503-6.618 8.412-15.722 8.412-26.327V0zM134.837 3l30.03 96.854h-24.44l-5.59-22.23h-28.602l-5.59 22.23H76.984L107.016 3h27.821m-24.182 56.682h19.761l-2.08-8.189c-2.6-9.621-5.07-21.191-7.67-31.071h-.52c-2.341 10.14-4.94 21.45-7.411 31.071l-2.08 8.189M137.048 0h-32.243l-.654 2.111-30.032 96.854-1.206 3.889H102.984l.57-2.269 5.02-19.962h23.924l5.02 19.962.57 2.269h30.85l-1.206-3.889-30.03-96.854L137.048 0zm-22.535 56.682l1.13-4.451c1.596-6.212 3.26-13.191 4.856-20.033.294 1.229.585 2.456.875 3.674 1.319 5.548 2.683 11.285 4.065 16.403l1.119 4.407h-12.045zM251.837 3v96.854h-23.661l-23.921-46.672-9.49-21.19h-.65c1.04 10.79 2.99 24.051 2.99 35.751v32.111h-22.101V3h23.66l24.052 46.412 9.49 21.45h.649c-1.17-10.271-3.12-24.181-3.12-35.751V3h22.102m3-3h-28.102v35.111c0 5.83.491 12.283 1.122 18.508l-2.398-5.421-.037-.085-.043-.082-24.051-46.412-.84-1.619h-28.484v102.854h28.101V67.742c0-6.149-.533-12.766-1.183-19.13l2.595 5.796.032.071.036.07 23.921 46.672.836 1.632h28.495V0zM351.155 3v96.854h-23.661l-23.921-46.672-9.49-21.19h-.65c1.04 10.79 2.99 24.051 2.99 35.751v32.111h-22.101V3h23.66l24.052 46.412 9.49 21.45h.649c-1.17-10.271-3.12-24.181-3.12-35.751V3h22.102m3-3h-28.102v35.111c0 5.83.491 12.283 1.122 18.508l-2.398-5.421-.037-.085-.043-.082-24.051-46.412L299.807 0h-28.484v102.854h28.101V67.742c0-6.149-.533-12.766-1.183-19.13l2.595 5.796.032.071.036.07 23.921 46.672.836 1.632h28.495V0h-.001zM396.912 3v96.854h-23.271V3h23.271m3-3h-29.271v102.854h29.271V0zM480.503 3v19.371h-38.092v17.94h32.371v19.501h-32.371v20.54h39.521v19.501H419.14V3h61.363m3-3h-67.362v102.854h68.792V77.353h-39.521v-14.54H477.783V37.312H445.412v-11.94h38.092V0h-.001z"/></g></svg>