<svg xmlns="http://www.w3.org/2000/svg" width="346.08" height="106.364"><path d="M38.491 4.69c20.671 0 37.831 7.15 37.831 30.551 0 14.171-6.63 23.271-16.641 27.951l21.581 38.352h-26L37.451 67.483h-11.18v34.061H3V4.69h35.491m-12.22 44.462h10.4c11.051 0 17.03-4.81 17.03-13.911 0-9.1-5.979-12.09-17.03-12.09h-10.4v26.001M38.491 1.69H0v102.853h29.271v-34.06h6.364l16.969 32.451.842 1.609h32.947l-2.516-4.471L63.81 64.411c10.034-5.883 15.513-16.121 15.513-29.169C79.322 19.936 72.238 1.69 38.491 1.69zm-9.22 24.461h7.4c11.684 0 14.03 3.478 14.03 9.09 0 2.699 0 10.911-14.03 10.911h-7.4V26.151zM134.95 3c26.392 0 44.332 18.071 44.332 49.662 0 31.722-17.94 50.702-44.332 50.702-26.391 0-44.331-18.98-44.331-50.702C90.619 20.941 108.56 3 134.95 3m0 80.343c12.741 0 20.671-11.959 20.671-30.681 0-18.721-7.93-29.771-20.671-29.771-12.74 0-20.54 11.05-20.54 29.771s7.8 30.681 20.54 30.681m0-83.343c-14.04 0-25.891 4.808-34.269 13.903-8.546 9.277-13.063 22.68-13.063 38.759 0 32.624 18.578 53.702 47.331 53.702s47.332-21.078 47.332-53.702c0-16.029-4.517-29.415-13.062-38.708C160.828 4.825 148.978 0 134.95 0zm0 80.343c-10.819 0-17.54-10.606-17.54-27.681 0-16.763 6.557-26.771 17.54-26.771 11.065 0 17.671 10.008 17.671 26.771 0 17.075-6.771 27.681-17.671 27.681zM229.85 3c11.18 0 23.011 4.291 31.461 12.741l-11.57 14.561c-6.371-4.81-12.351-7.41-19.891-7.41-7.15 0-11.441 2.86-11.441 7.93 0 5.46 5.98 7.54 14.561 10.92l12.091 4.81c11.961 4.811 19.11 12.871 19.11 26.521 0 16.121-13.52 30.291-36.921 30.291-12.61 0-26.131-4.68-36.142-13.91l13.261-15.99c6.761 5.85 15.73 9.879 23.401 9.879 8.58 0 12.61-3.25 12.61-8.449 0-5.59-5.331-7.411-13.651-10.92l-12.35-5.201c-10.141-4.029-19.631-12.48-19.631-26.521C194.748 16.001 209.309 3 229.85 3m0-3c-21.722 0-38.102 13.865-38.102 32.251 0 13.181 7.834 23.858 21.494 29.298l12.322 5.188c.568.24 1.125.473 1.666.699 7.67 3.208 10.149 4.495 10.149 7.458 0 3.617-3.233 5.449-9.61 5.449-6.703 0-14.917-3.504-21.438-9.149l-2.316-2.004-1.956 2.357-13.26 15.99-1.817 2.191 2.093 1.93c10.135 9.346 24.05 14.705 38.175 14.705 11.806 0 21.909-3.406 29.22-9.85 6.9-6.084 10.701-14.408 10.701-23.441 0-14.038-6.865-23.624-20.99-29.305l-12.102-4.814-1.195-.47c-7.54-2.959-11.475-4.644-11.475-7.663 0-4.29 5.289-4.93 8.441-4.93 6.357 0 11.766 2.035 18.083 6.804l2.335 1.764 1.821-2.292 11.57-14.561 1.665-2.095-1.893-1.893C254.776 4.964 242.536 0 229.85 0zM341.649 4.69v19.371h-38.091v17.941h32.371v19.5h-32.371v20.542h39.521v19.5h-62.793V4.69h61.363m3-3h-67.362v102.853h68.793v-25.5h-39.521V64.502H338.93v-25.5H306.559V27.061h38.091V1.69h-.001z"/></svg>