<svg xmlns="http://www.w3.org/2000/svg" width="317.612" height="115.854" viewBox="-299.633 -338.607 317.612 115.854"><path d="M-283.763-335.607c7.67 0 12.871 4.68 12.871 11.831 0 7.28-5.2 11.96-12.871 11.96-7.8 0-12.87-4.68-12.87-11.96 0-7.151 5.07-11.831 12.87-11.831m11.571 34.061v73.973h-23.141v-73.973h23.141m-11.571-37.061c-9.492 0-15.87 5.96-15.87 14.831 0 8.948 6.378 14.96 15.87 14.96 9.344 0 15.871-6.152 15.871-14.96 0-8.733-6.526-14.831-15.871-14.831zm14.571 34.061h-29.141v79.973h29.141v-79.973zM-175.21-324.427l-29.251 38.871 34.711 57.982h-25.351l-22.881-39.651-10.531 14.3v25.351h-23.271v-96.854h23.271v38.352h.39l27.431-38.352h25.482m6.012-2.999H-202.233l-.897 1.255-22.381 31.291v-32.546h-29.271v102.854h29.271v-27.366l7.226-9.812 20.587 35.677.866 1.5h32.375l-2.718-4.541-33.674-56.25 28.037-37.258 3.614-4.804z"/><path d="M-124.121-326.117c26.391 0 44.332 18.071 44.332 49.662 0 31.721-17.941 50.702-44.332 50.702-26.391 0-44.332-18.981-44.332-50.702s17.941-49.662 44.332-49.662m0 80.343c12.741 0 20.671-11.96 20.671-30.681s-7.93-29.771-20.671-29.771c-12.74 0-20.541 11.05-20.541 29.771s7.801 30.681 20.541 30.681m0-83.343c-14.041 0-25.891 4.808-34.269 13.903-8.546 9.277-13.063 22.68-13.063 38.759 0 32.623 18.579 53.702 47.332 53.702s47.332-21.079 47.332-53.702c0-16.029-4.517-29.415-13.061-38.708-8.393-9.129-20.244-13.954-34.271-13.954zm0 80.343c-10.819 0-17.541-10.607-17.541-27.681 0-16.763 6.557-26.771 17.541-26.771 11.065 0 17.671 10.008 17.671 26.771 0 17.074-6.771 27.681-17.671 27.681zM14.979-324.427v96.854h-23.66l-23.921-46.672-9.491-21.19h-.65c1.04 10.79 2.99 24.051 2.99 35.751v32.111h-22.101v-96.854h23.661l24.051 46.412 9.49 21.451h.65c-1.17-10.271-3.12-24.181-3.12-35.751v-32.111h22.101m3-3.001h-28.1v35.111c0 5.831.491 12.285 1.123 18.51l-2.399-5.423-.038-.084-.042-.082-24.051-46.412-.839-1.62H-64.852v102.854h28.101v-35.111c0-6.149-.533-12.766-1.183-19.129l2.596 5.795.032.072.036.07 23.921 46.672.836 1.632h28.494v-102.855h-.002z"/></svg>