<svg xmlns="http://www.w3.org/2000/svg" width="910.372" height="127.114"><g fill="#FFF"><path d="M34.909 2C53.63 2 66.63 13.96 66.63 32.421c0 15.73-14.69 32.501-29.251 47.581 4.811-.649 11.44-1.3 15.861-1.3h17.811v19.501H3.968V84.942C27.369 63.101 44.4 46.981 44.4 33.72c0-8.971-4.811-13.65-12.61-13.65-6.63 0-11.7 4.68-16.381 9.36L2.798 16.95C12.288 6.939 21.129 2 34.909 2m0-2C21.382 0 11.972 4.366 1.347 15.574L0 16.995l1.391 1.377 12.61 12.48 1.415 1.399 1.406-1.407c4.624-4.624 9.248-8.774 14.967-8.774 6.941 0 10.61 4.028 10.61 11.65 0 12.617-17.562 29.008-39.796 49.76l-.636.593v16.13H73.05V76.702H53.24c-3.018 0-6.953.293-10.576.663C55.848 63.385 68.63 47.638 68.63 32.421 68.63 13.029 55.078 0 34.909 0zM131.499 3.819v75.663h17.42v18.721H87.817V79.482h20.541V26.961H90.547V12.66c10.4-2.08 17.161-4.681 23.921-8.841h17.031m2-2H113.902l-.481.297c-6.72 4.135-13.46 6.622-23.266 8.583l-1.607.321V28.961H106.36v48.521H85.817v22.721h65.102V77.482h-17.42V1.819zM179.727 71.292c7.931 0 13.78 6.24 13.78 14.301s-5.85 14.431-13.78 14.431c-8.061 0-13.78-6.37-13.78-14.431s5.719-14.301 13.78-14.301m0-2c-8.996 0-15.78 7.008-15.78 16.301 0 9.367 6.784 16.431 15.78 16.431 8.849 0 15.78-7.217 15.78-16.431 0-9.293-6.784-16.301-15.78-16.301zM242.127 2c20.411 0 34.191 16.51 34.191 48.621 0 32.241-13.78 49.402-34.191 49.402-20.541 0-34.321-17.161-34.321-49.402S221.586 2 242.127 2m0 80.082c6.891 0 12.351-5.979 12.351-31.461 0-25.48-5.46-30.681-12.351-30.681-6.89 0-12.48 5.2-12.48 30.681-.001 25.482 5.59 31.461 12.48 31.461m0-82.082c-11.01 0-20.163 4.506-26.471 13.03-6.536 8.833-9.851 21.479-9.851 37.591 0 15.931 3.401 29.058 9.837 37.963 6.354 8.792 15.512 13.439 26.484 13.439 10.916 0 20.035-4.648 26.372-13.441 6.424-8.913 9.819-22.04 9.819-37.961C278.318 18.924 264.789 0 242.127 0zm0 80.082c-4.499 0-10.48-3.054-10.48-29.461 0-28.681 7.345-28.681 10.48-28.681 3.098 0 10.351 0 10.351 28.681 0 29.461-7.52 29.461-10.351 29.461zM317.396 2c20.021 0 33.151 9.49 33.151 26.131 0 9.49-5.33 16.51-15.471 20.801v.649c10.661 3.12 18.591 10.791 18.591 22.881 0 17.681-16.511 27.562-35.751 27.562-15.341 0-26.131-5.33-33.151-13.521l10.66-14.561c5.851 5.46 12.61 9.36 20.151 9.36 8.97 0 14.82-3.641 14.82-10.4 0-7.931-4.42-12.61-24.701-12.61V41.911c16.511 0 21.711-4.94 21.711-11.961 0-6.37-3.9-9.88-11.051-9.88-6.5 0-11.44 2.99-17.29 8.19l-11.7-14.171C296.336 6.68 305.956 2 317.396 2m0-2c-10.994 0-20.941 3.987-31.304 12.548l-1.542 1.273 1.273 1.542 11.7 14.171 1.32 1.6 1.551-1.378c5.337-4.745 9.868-7.686 15.961-7.686 6.006 0 9.051 2.651 9.051 7.88 0 4.276-2.043 9.961-19.711 9.961h-2v20.381h2c20.965 0 22.701 5.019 22.701 10.61 0 7.582-8.966 8.4-12.82 8.4-6.193 0-12.514-2.969-18.787-8.822l-1.647-1.537-1.33 1.817-10.66 14.561-.938 1.279 1.032 1.204c7.974 9.302 19.962 14.219 34.67 14.219 22.228 0 37.751-12.156 37.751-29.562 0-10.766-5.84-19.134-16.182-23.446 8.564-4.732 13.062-11.888 13.062-20.885C352.548 10.779 339.078 0 317.396 0zM383.695 71.292c7.931 0 13.78 6.24 13.78 14.301s-5.85 14.431-13.78 14.431c-8.061 0-13.78-6.37-13.78-14.431s5.72-14.301 13.78-14.301m0-2c-8.996 0-15.78 7.008-15.78 16.301 0 9.367 6.784 16.431 15.78 16.431 8.849 0 15.78-7.217 15.78-16.431.001-9.293-6.784-16.301-15.78-16.301zM446.096 2c20.411 0 34.191 16.51 34.191 48.621 0 32.241-13.78 49.402-34.191 49.402-20.541 0-34.321-17.161-34.321-49.402S425.555 2 446.096 2m0 80.082c6.891 0 12.351-5.979 12.351-31.461 0-25.48-5.46-30.681-12.351-30.681-6.89 0-12.48 5.2-12.48 30.681-.001 25.482 5.59 31.461 12.48 31.461m0-82.082c-11.01 0-20.163 4.506-26.471 13.03-6.536 8.833-9.851 21.479-9.851 37.591 0 15.931 3.401 29.058 9.837 37.963 6.354 8.792 15.512 13.439 26.484 13.439 10.916 0 20.035-4.648 26.372-13.441 6.424-8.913 9.819-22.04 9.819-37.961C482.287 18.924 468.758 0 446.096 0zm0 80.082c-4.499 0-10.48-3.054-10.48-29.461 0-28.681 7.345-28.681 10.48-28.681 3.098 0 10.351 0 10.351 28.681-.001 29.461-7.52 29.461-10.351 29.461zM521.364 2c20.021 0 33.151 9.49 33.151 26.131 0 9.49-5.33 16.51-15.471 20.801v.649c10.661 3.12 18.591 10.791 18.591 22.881 0 17.681-16.511 27.562-35.751 27.562-15.341 0-26.131-5.33-33.151-13.521l10.66-14.561c5.851 5.46 12.61 9.36 20.151 9.36 8.97 0 14.82-3.641 14.82-10.4 0-7.931-4.42-12.61-24.701-12.61V41.911c16.511 0 21.711-4.94 21.711-11.961 0-6.37-3.9-9.88-11.051-9.88-6.5 0-11.44 2.99-17.29 8.19l-11.7-14.17C500.304 6.68 509.924 2 521.364 2m0-2c-10.994 0-20.941 3.987-31.305 12.548l-1.542 1.273 1.273 1.542 11.701 14.171 1.32 1.6 1.551-1.378c5.337-4.745 9.868-7.686 15.961-7.686 6.006 0 9.051 2.651 9.051 7.88 0 4.276-2.043 9.961-19.711 9.961h-2v20.381h2c20.965 0 22.701 5.019 22.701 10.61 0 7.582-8.966 8.4-12.82 8.4-6.193 0-12.514-2.969-18.787-8.822l-1.646-1.537-1.332 1.817-10.66 14.561-.936 1.279 1.031 1.204c7.974 9.302 19.962 14.219 34.67 14.219 22.228 0 37.751-12.156 37.751-29.562 0-10.766-5.84-19.134-16.182-23.446 8.564-4.732 13.062-11.888 13.062-20.885C556.516 10.779 543.047 0 521.364 0zM668.651 2c12.87 0 22.23 5.46 28.341 11.57l-12.221 13.78c-3.12-3.511-9.101-6.63-14.561-6.63-9.88 0-17.811 7.02-18.721 28.08 4.94-6.24 13.001-9.75 18.461-9.75 16.12 0 28.341 9.101 28.341 29.121 0 19.891-14.561 31.852-31.852 31.852-18.33 0-36.141-13.521-36.141-47.063C630.3 18.12 648.761 2 668.651 2m-2.86 80.732c6.24 0 11.44-4.16 11.44-14.561 0-9.75-5.33-12.87-11.83-12.87-4.421 0-9.361 2.21-13.391 8.84 1.95 14.431 7.93 18.591 13.781 18.591M668.651 0c-10.993 0-20.994 4.66-28.161 13.123-7.975 9.416-12.19 23.192-12.19 39.838 0 15.896 4.047 28.843 11.703 37.439 6.675 7.495 16.063 11.623 26.438 11.623 9.18 0 17.626-3.201 23.783-9.013 6.587-6.218 10.068-14.807 10.068-24.839 0-19.487-11.343-31.121-30.341-31.121-4.548 0-10.885 2.204-16.043 6.461 1.614-13.803 7.085-20.791 16.303-20.791 5.047 0 10.498 3.07 13.065 5.959l1.497 1.684 1.494-1.686 12.221-13.78 1.25-1.409-1.332-1.332C692.861 6.61 683.197 0 668.651 0zm-14.557 64.584c3.077-4.768 6.976-7.282 11.308-7.282 6.706 0 9.83 3.454 9.83 10.87 0 8.1-3.353 12.561-9.44 12.561-7.63-.001-10.579-8.616-11.698-16.149zM754.58 22.41c17.681 0 28.861 14.82 28.861 37.571 0 25.481-15.211 40.042-31.071 40.042-6.24 0-12.221-2.73-17.16-7.671l.779 11.571v21.19h-23.141V24.23h18.851l1.69 7.15h.39c5.851-5.199 13.131-8.97 20.801-8.97m-7.67 58.633c7.021 0 12.74-5.851 12.74-20.671 0-13.001-3.771-19.111-11.96-19.111-4.291 0-7.801 1.95-11.701 6.24v29.251c3.641 3.25 7.41 4.291 10.921 4.291m7.67-60.633c-8.155 0-15.059 3.814-19.925 7.633l-1.01-4.272-.364-1.54h-22.433v104.884h27.141v-23.257l-.005-.067-.459-6.813c4.531 3.316 9.589 5.047 14.845 5.047 8.604 0 16.991-4.072 23.009-11.172 6.583-7.767 10.063-18.441 10.063-30.87-.001-24.041-12.114-39.573-30.862-39.573zm-16.591 27.876c3.341-3.515 6.272-5.025 9.701-5.025 4.638 0 9.96 1.945 9.96 17.111 0 12.04-3.814 18.671-10.74 18.671-3.322 0-6.249-1.053-8.921-3.215V48.286zM885.231 22.41c16.12 0 23.141 11.57 23.141 30.031v45.762h-23.141V55.302c0-10.271-2.601-13.131-8.451-13.131-3.38 0-7.41 2.08-11.83 6.63v49.402h-23.14V55.302c0-10.271-2.73-13.131-8.58-13.131-3.381 0-7.411 2.08-11.701 6.63v49.402h-23.141V24.23h18.851l1.69 9.36h.39c6.11-6.11 12.48-11.181 22.491-11.181 10.271 0 16.511 4.29 20.28 12.221 6.37-6.499 13.261-12.22 23.141-12.22m0-2c-9.938 0-16.926 5.325-22.648 10.9-4.379-7.328-11.202-10.9-20.773-10.9-9.689 0-16.243 4.545-21.521 9.456l-1.082-5.991-.297-1.645h-22.522v77.973h27.141V49.607c3.465-3.512 6.891-5.437 9.701-5.437 3.853 0 6.58.799 6.58 11.131v44.901h27.141V49.624c3.616-3.571 7.004-5.453 9.83-5.453 3.777 0 6.451.799 6.451 11.131v44.901h27.141V52.441c0-9.931-1.987-17.707-5.906-23.112-4.291-5.918-10.763-8.919-19.236-8.919z"/></g></svg>