<svg xmlns="http://www.w3.org/2000/svg" width="358.547" height="165.378"><g fill="#FFF"><path d="M23.271 2c11.936 0 20.224 7.626 20.224 19.396 0 10.029-9.365 20.722-18.648 30.337 3.066-.415 7.294-.829 10.111-.829h11.355v12.433H3.544v-8.454C18.463 40.958 29.321 30.68 29.321 22.226c0-5.719-3.067-8.703-8.04-8.703-4.228 0-7.46 2.984-10.443 5.968l-8.04-7.957C8.849 5.15 14.484 2 23.271 2m0-2C14.538 0 8.186 2.942 1.347 10.156L0 11.577l1.391 1.377 8.04 7.957 1.415 1.399 1.406-1.407c2.944-2.944 5.656-5.382 9.029-5.382 4.008 0 6.04 2.255 6.04 6.703 0 7.729-11.651 18.604-25.142 31.195l-.636.593v11.323h46.769V48.903H34.957c-1.428 0-3.167.101-4.908.248 8.021-8.664 15.445-18.311 15.445-27.756C45.494 8.598 36.563 0 23.271 0zM84.854 3.161V51.4h11.107v11.936H57.004V51.4H70.1V17.914H58.745V8.797c6.631-1.326 10.94-2.983 15.251-5.636h10.858m2-2H73.43l-.481.297c-4.261 2.621-8.353 4.129-14.596 5.378l-1.607.321V19.914H68.1V49.4H55.004v15.936h42.957V49.4H86.854V1.161zM115.603 46.179c5.056 0 8.786 3.979 8.786 9.117s-3.73 9.2-8.786 9.2c-5.139 0-8.786-4.062-8.786-9.2s3.647-9.117 8.786-9.117m0-2c-6.149 0-10.786 4.779-10.786 11.117 0 6.385 4.637 11.2 10.786 11.2 6.048 0 10.786-4.92 10.786-11.2 0-6.338-4.637-11.117-10.786-11.117zM155.388 2c13.013 0 21.799 10.527 21.799 31 0 20.556-8.786 31.496-21.799 31.496-13.096 0-21.882-10.94-21.882-31.496s8.786-31 21.882-31m0 51.059c4.393 0 7.874-3.813 7.874-20.059 0-16.246-3.481-19.562-7.874-19.562-4.394 0-7.957 3.315-7.957 19.562 0 16.245 3.563 20.059 7.957 20.059m0-53.059c-14.954 0-23.882 12.336-23.882 33 0 10.457 2.156 18.743 6.409 24.628 4.192 5.802 10.234 8.868 17.473 8.868 7.202 0 13.22-3.067 17.401-8.87 4.186-5.807 6.397-14.322 6.397-24.626.001-20.664-8.896-33-23.798-33zm0 51.059c-1.474 0-5.957 0-5.957-18.059 0-17.562 4.175-17.562 5.957-17.562 1.758 0 5.874 0 5.874 17.562 0 18.059-4.421 18.059-5.874 18.059zM203.377 2c12.764 0 21.136 6.051 21.136 16.66 0 6.051-3.398 10.527-9.863 13.262v.415c6.796 1.989 11.853 6.879 11.853 14.588 0 11.272-10.526 17.571-22.794 17.571-9.78 0-16.66-3.398-21.136-8.62l6.797-9.283c3.729 3.481 8.04 5.968 12.847 5.968 5.72 0 9.449-2.32 9.449-6.631 0-5.056-2.818-8.04-15.748-8.04V27.446c10.526 0 13.842-3.149 13.842-7.625 0-4.062-2.486-6.3-7.045-6.3-4.145 0-7.294 1.906-11.024 5.222l-7.459-9.034C189.949 4.984 196.083 2 203.377 2m0-2c-7.188 0-13.676 2.596-20.42 8.167l-1.542 1.273 1.273 1.542 7.459 9.034 1.32 1.6 1.55-1.378c3.869-3.438 6.497-4.717 9.696-4.717 4.522 0 5.045 2.454 5.045 4.3 0 1.538 0 5.625-11.842 5.625h-2V39.89h2c13.748 0 13.748 3.491 13.748 6.04 0 4.18-5.21 4.631-7.449 4.631-3.759 0-7.622-1.827-11.481-5.43l-1.647-1.538-1.331 1.818-6.797 9.283-.938 1.279 1.032 1.204c5.226 6.096 13.059 9.318 22.654 9.318 14.599 0 24.794-8.048 24.794-19.571 0-6.611-3.479-12.011-9.49-15.024 4.925-3.137 7.501-7.653 7.501-13.24C226.513 7.15 217.647 0 203.377 0zM245.647 46.179c5.056 0 8.786 3.979 8.786 9.117s-3.73 9.2-8.786 9.2c-5.139 0-8.786-4.062-8.786-9.2s3.648-9.117 8.786-9.117m0-2c-6.149 0-10.786 4.779-10.786 11.117 0 6.385 4.637 11.2 10.786 11.2 6.048 0 10.786-4.92 10.786-11.2.001-6.338-4.636-11.117-10.786-11.117zM285.433 2c13.013 0 21.799 10.527 21.799 31 0 20.556-8.786 31.496-21.799 31.496-13.096 0-21.882-10.94-21.882-31.496s8.786-31 21.882-31m0 51.059c4.393 0 7.874-3.813 7.874-20.059 0-16.246-3.481-19.562-7.874-19.562-4.394 0-7.957 3.315-7.957 19.562 0 16.245 3.563 20.059 7.957 20.059m0-53.059c-14.954 0-23.882 12.336-23.882 33 0 10.457 2.156 18.743 6.409 24.628 4.192 5.802 10.234 8.868 17.473 8.868 7.202 0 13.22-3.067 17.401-8.87 4.186-5.807 6.397-14.322 6.397-24.626 0-20.664-8.896-33-23.798-33zm0 51.059c-1.474 0-5.957 0-5.957-18.059 0-17.562 4.175-17.562 5.957-17.562 1.758 0 5.874 0 5.874 17.562 0 18.059-4.421 18.059-5.874 18.059zM333.422 2c12.764 0 21.136 6.051 21.136 16.66 0 6.051-3.398 10.527-9.863 13.262v.415c6.796 1.989 11.853 6.879 11.853 14.588 0 11.272-10.526 17.571-22.794 17.571-9.78 0-16.66-3.398-21.136-8.62l6.797-9.283c3.729 3.481 8.04 5.968 12.847 5.968 5.72 0 9.449-2.32 9.449-6.631 0-5.056-2.818-8.04-15.748-8.04V27.446c10.526 0 13.842-3.149 13.842-7.625 0-4.062-2.486-6.3-7.045-6.3-4.145 0-7.294 1.906-11.024 5.222l-7.459-9.034C319.994 4.984 326.128 2 333.422 2m0-2c-7.188 0-13.676 2.596-20.42 8.167L311.46 9.44l1.273 1.542 7.459 9.034 1.32 1.6 1.55-1.378c3.869-3.438 6.497-4.717 9.696-4.717 4.522 0 5.045 2.454 5.045 4.3 0 1.538 0 5.625-11.842 5.625h-2V39.89h2c13.748 0 13.748 3.491 13.748 6.04 0 4.18-5.21 4.631-7.449 4.631-3.759 0-7.622-1.827-11.481-5.43l-1.647-1.538-1.331 1.818-6.797 9.283-.938 1.279 1.032 1.204c5.226 6.096 13.059 9.318 22.654 9.318 14.599 0 24.794-8.048 24.794-19.571 0-6.611-3.479-12.011-9.49-15.024 4.925-3.137 7.501-7.653 7.501-13.24C356.558 7.15 347.692 0 333.422 0zM202.715 84.885c8.206 0 14.174 3.481 18.069 7.377l-7.791 8.786c-1.989-2.237-5.802-4.228-9.283-4.228-6.3 0-11.355 4.477-11.936 17.904 3.149-3.979 8.288-6.217 11.77-6.217 10.278 0 18.069 5.802 18.069 18.566 0 12.682-9.283 20.307-20.307 20.307-11.688 0-23.043-8.62-23.043-30.004.001-22.213 11.77-32.491 24.452-32.491m-1.823 51.472c3.979 0 7.294-2.652 7.294-9.283 0-6.217-3.398-8.206-7.543-8.206-2.817 0-5.967 1.409-8.537 5.637 1.244 9.2 5.056 11.852 8.786 11.852m1.823-53.472c-7.226 0-13.798 3.063-18.508 8.623-5.196 6.137-7.943 15.082-7.943 25.869 0 10.314 2.644 18.735 7.646 24.352 4.395 4.935 10.573 7.652 17.397 7.652 12.926 0 22.307-9.381 22.307-22.307 0-12.878-7.503-20.566-20.069-20.566-2.627 0-6.145 1.097-9.268 3.224 1.207-7.246 4.369-10.911 9.434-10.911 3.005 0 6.256 1.832 7.788 3.557l1.497 1.684 1.494-1.686 7.791-8.786 1.25-1.409-1.332-1.332c-3.634-3.634-9.962-7.964-19.484-7.964zm-8.524 42.066c1.813-2.71 3.98-4.083 6.451-4.083 3.834 0 5.543 1.914 5.543 6.206 0 3.322-.918 7.283-5.294 7.283-4.262 0-5.999-4.955-6.7-9.406zM257.502 97.898c11.272 0 18.4 9.449 18.4 23.954 0 16.245-9.697 25.528-19.81 25.528-3.979 0-7.791-1.74-10.94-4.89l.497 7.376v13.511h-14.754V99.059h12.019l1.077 4.559h.249c3.73-3.316 8.371-5.72 13.262-5.72m-4.891 37.381c4.477 0 8.123-3.729 8.123-13.179 0-8.288-2.403-12.184-7.625-12.184-2.735 0-4.974 1.243-7.46 3.979v18.649c2.321 2.073 4.725 2.735 6.962 2.735m4.891-39.381c-4.915 0-9.125 2.078-12.253 4.344l-.389-1.644-.364-1.54h-15.601v68.319H247.649V149.8l-.005-.067-.192-2.865c2.683 1.655 5.609 2.514 8.641 2.514 5.699 0 11.248-2.689 15.223-7.379 4.31-5.084 6.587-12.052 6.587-20.149-.001-15.768-8.008-25.956-20.401-25.956zm-9.853 18.79c1.912-1.959 3.53-2.771 5.46-2.771 1.826 0 5.625 0 5.625 10.184 0 4.175-.796 11.179-6.123 11.179-1.834 0-3.466-.55-4.962-1.677v-16.915zM340.801 97.898c10.277 0 14.753 7.377 14.753 19.146v29.176h-14.753v-27.353c0-6.548-1.658-8.371-5.388-8.371-2.155 0-4.725 1.326-7.543 4.228v31.496h-14.754v-27.353c0-6.548-1.74-8.371-5.47-8.371-2.155 0-4.725 1.326-7.46 4.228v31.496h-14.754V99.059h12.019l1.077 5.968h.249c3.896-3.896 7.957-7.128 14.339-7.128 6.548 0 10.526 2.735 12.931 7.791 4.061-4.145 8.454-7.792 14.754-7.792m0-2c-5.989 0-10.454 2.956-14.295 6.542-2.936-4.396-7.341-6.542-13.39-6.542-5.843 0-9.938 2.47-13.239 5.343l-.457-2.538-.297-1.645h-15.691v51.162H302.186v-32.682c1.995-1.968 3.916-3.042 5.46-3.042 1.861 0 3.47 0 3.47 6.371v29.353H329.87v-32.665c2.062-1.979 4.012-3.059 5.543-3.059 1.817 0 3.388 0 3.388 6.371v29.353h18.753v-31.176c0-13.636-5.95-21.146-16.753-21.146z"/></g></svg>