<svg xmlns="http://www.w3.org/2000/svg" width="359.128" height="165.378"><g fill="#FFF"><path d="M23.271 2c11.936 0 20.225 7.626 20.225 19.396 0 10.029-9.367 20.722-18.65 30.337 3.067-.415 7.295-.829 10.113-.829h11.354v12.433H3.544v-8.454C18.463 40.958 29.321 30.68 29.321 22.226c0-5.719-3.066-8.703-8.04-8.703-4.228 0-7.46 2.984-10.443 5.968l-8.04-7.957C8.849 5.15 14.484 2 23.271 2m0-2C14.538 0 8.187 2.942 1.347 10.156L0 11.577l1.391 1.377 8.04 7.957 1.414 1.399 1.407-1.407c2.944-2.944 5.656-5.382 9.029-5.382 4.008 0 6.04 2.255 6.04 6.703 0 7.729-11.651 18.604-25.142 31.195l-.636.593v11.323h46.769V48.903H34.958c-1.429 0-3.168.101-4.91.248 8.021-8.665 15.447-18.313 15.447-27.756C45.495 8.598 36.563 0 23.271 0zM84.854 3.161V51.4H95.96v11.936H57.004V51.4H70.1V17.914H58.744V8.797c6.631-1.326 10.94-2.983 15.251-5.636h10.859m2-2H73.429l-.481.297c-4.261 2.621-8.353 4.129-14.596 5.378l-1.607.321V19.914H68.1V49.4H55.004v15.936H97.96V49.4H86.854V1.161zM115.603 46.179c5.057 0 8.786 3.979 8.786 9.117 0 5.14-3.729 9.2-8.786 9.2-5.139 0-8.785-4.061-8.785-9.2-.001-5.139 3.646-9.117 8.785-9.117m0-2c-6.148 0-10.785 4.779-10.785 11.117 0 6.385 4.637 11.2 10.785 11.2 6.049 0 10.786-4.92 10.786-11.2 0-6.338-4.637-11.117-10.786-11.117zM155.388 2c13.013 0 21.799 10.527 21.799 31 0 20.556-8.786 31.496-21.799 31.496-13.096 0-21.882-10.94-21.882-31.496s8.786-31 21.882-31m0 51.059c4.393 0 7.874-3.813 7.874-20.059 0-16.246-3.481-19.562-7.874-19.562s-7.957 3.315-7.957 19.562c0 16.245 3.564 20.059 7.957 20.059m0-53.059c-14.954 0-23.882 12.336-23.882 33 0 10.457 2.156 18.743 6.409 24.628 4.192 5.802 10.234 8.868 17.473 8.868 7.202 0 13.22-3.067 17.401-8.87 4.186-5.807 6.397-14.322 6.397-24.626.001-20.664-8.896-33-23.798-33zm0 51.059c-1.474 0-5.957 0-5.957-18.059 0-17.562 4.175-17.562 5.957-17.562 1.758 0 5.874 0 5.874 17.562 0 18.059-4.421 18.059-5.874 18.059zM203.377 2c12.765 0 21.136 6.051 21.136 16.66 0 6.051-3.398 10.527-9.863 13.262v.415c6.797 1.989 11.853 6.88 11.853 14.588 0 11.272-10.526 17.571-22.794 17.571-9.779 0-16.659-3.398-21.135-8.62l6.796-9.283c3.729 3.481 8.04 5.968 12.848 5.968 5.719 0 9.448-2.32 9.448-6.631 0-5.056-2.817-8.039-15.748-8.039V27.446c10.527 0 13.842-3.149 13.842-7.626 0-4.061-2.486-6.299-7.045-6.299-4.145 0-7.294 1.906-11.023 5.222l-7.46-9.034C189.95 4.984 196.083 2 203.377 2m0-2c-7.187 0-13.675 2.595-20.42 8.167l-1.542 1.273 1.273 1.542 7.46 9.034 1.32 1.6 1.551-1.378c3.867-3.438 6.495-4.717 9.694-4.717 4.521 0 5.045 2.453 5.045 4.299 0 1.539 0 5.626-11.842 5.626h-2V39.89h2c13.748 0 13.748 3.49 13.748 6.039 0 4.18-5.209 4.631-7.448 4.631-3.76 0-7.623-1.827-11.483-5.43l-1.646-1.538-1.332 1.818-6.795 9.283-.938 1.279 1.032 1.204c5.226 6.096 13.059 9.318 22.653 9.318 14.599 0 24.794-8.048 24.794-19.571 0-6.61-3.479-12.011-9.49-15.024 4.925-3.137 7.501-7.653 7.501-13.24C226.513 7.15 217.647 0 203.377 0zM245.647 46.179c5.057 0 8.786 3.979 8.786 9.117 0 5.14-3.729 9.2-8.786 9.2-5.139 0-8.786-4.061-8.786-9.2 0-5.139 3.648-9.117 8.786-9.117m0-2c-6.149 0-10.786 4.779-10.786 11.117 0 6.385 4.637 11.2 10.786 11.2 6.049 0 10.786-4.92 10.786-11.2.001-6.338-4.636-11.117-10.786-11.117zM283.36 2c11.936 0 20.224 7.626 20.224 19.396 0 10.029-9.366 20.722-18.649 30.337 3.066-.415 7.294-.829 10.112-.829h11.355v12.433h-42.77v-8.454c14.92-13.925 25.778-24.203 25.778-32.657 0-5.719-3.067-8.703-8.041-8.703-4.227 0-7.459 2.984-10.443 5.968l-8.039-7.957C268.938 5.15 274.574 2 283.36 2m0-2c-8.733 0-15.086 2.942-21.924 10.156l-1.347 1.421 1.391 1.377 8.039 7.957 1.414 1.399 1.407-1.407c2.945-2.944 5.658-5.382 9.029-5.382 4.009 0 6.041 2.255 6.041 6.703 0 7.729-11.651 18.604-25.143 31.195l-.636.593v11.323h46.77V48.903h-13.355c-1.429 0-3.168.101-4.909.248 8.021-8.665 15.446-18.312 15.446-27.756C305.584 8.598 296.653 0 283.36 0zM334.085 2c11.688 0 23.043 8.621 23.043 30.005 0 22.214-11.771 32.491-24.452 32.491-8.206 0-14.256-3.48-18.069-7.377l7.792-8.868c1.989 2.32 5.802 4.31 9.283 4.31 6.382 0 11.354-4.476 11.936-17.903-3.149 3.979-8.289 6.217-11.771 6.217-10.36 0-18.068-5.802-18.068-18.566C313.778 9.626 323.062 2 334.085 2m.663 28.514c2.983 0 6.3-1.658 8.537-5.72-1.326-9.117-5.139-11.77-8.868-11.77-3.896 0-7.211 2.569-7.211 9.283 0 6.216 3.315 8.207 7.542 8.207M334.085 0c-12.926 0-22.307 9.382-22.307 22.308 0 12.878 7.502 20.566 20.068 20.566 2.629 0 6.149-1.098 9.274-3.228-1.791 10.915-7.426 10.914-9.439 10.914-3.032 0-6.264-1.86-7.765-3.611l-1.5-1.749-1.521 1.73-7.791 8.868-1.225 1.394 1.297 1.325c2.916 2.98 9.327 7.979 19.499 7.979 7.226 0 13.799-3.063 18.508-8.623 5.197-6.136 7.944-15.081 7.944-25.868 0-10.314-2.644-18.735-7.646-24.352C347.088 2.718 340.909 0 334.085 0zm.663 28.514c-3.885 0-5.542-1.855-5.542-6.206 0-3.322.904-7.283 5.211-7.283 4.264 0 6.044 4.944 6.782 9.375-1.632 2.623-3.954 4.114-6.451 4.114zM202.715 84.885c8.206 0 14.173 3.481 18.069 7.377l-7.791 8.786c-1.99-2.237-5.803-4.228-9.283-4.228-6.3 0-11.355 4.477-11.936 17.904 3.148-3.979 8.288-6.217 11.77-6.217 10.277 0 18.068 5.802 18.068 18.566 0 12.682-9.283 20.307-20.307 20.307-11.688 0-23.042-8.62-23.042-30.004.001-22.213 11.77-32.491 24.452-32.491m-1.823 51.472c3.979 0 7.293-2.652 7.293-9.283 0-6.217-3.397-8.206-7.542-8.206-2.818 0-5.968 1.409-8.537 5.637 1.243 9.2 5.055 11.852 8.786 11.852m1.823-53.472c-7.226 0-13.798 3.063-18.508 8.623-5.196 6.137-7.943 15.082-7.943 25.869 0 10.314 2.644 18.735 7.645 24.351 4.396 4.936 10.573 7.653 17.397 7.653 12.926 0 22.307-9.381 22.307-22.307 0-12.878-7.502-20.566-20.068-20.566-2.628 0-6.145 1.097-9.268 3.223 1.207-7.246 4.369-10.91 9.434-10.91 3.004 0 6.255 1.832 7.789 3.557l1.496 1.683 1.494-1.685 7.791-8.786 1.25-1.409-1.332-1.332c-3.635-3.634-9.964-7.964-19.484-7.964zm-8.524 42.066c1.813-2.71 3.979-4.083 6.451-4.083 3.833 0 5.542 1.914 5.542 6.206 0 3.322-.918 7.283-5.293 7.283-4.263 0-5.999-4.955-6.7-9.406zM257.501 97.898c11.272 0 18.4 9.449 18.4 23.954 0 16.245-9.697 25.528-19.81 25.528-3.979 0-7.791-1.74-10.94-4.89l.497 7.376v13.511h-14.754V99.059h12.019l1.077 4.559h.249c3.73-3.316 8.371-5.72 13.262-5.72m-4.891 37.381c4.477 0 8.123-3.729 8.123-13.179 0-8.288-2.404-12.184-7.625-12.184-2.736 0-4.974 1.243-7.46 3.979v18.649c2.321 2.073 4.724 2.735 6.962 2.735m4.891-39.381c-4.915 0-9.125 2.078-12.253 4.344l-.389-1.644-.364-1.54h-15.601v68.319H247.648V149.8l-.005-.067-.192-2.865c2.683 1.655 5.609 2.514 8.641 2.514 5.699 0 11.248-2.689 15.223-7.379 4.31-5.084 6.587-12.052 6.587-20.149-.001-15.768-8.008-25.956-20.401-25.956zm-9.853 18.79c1.912-1.959 3.53-2.771 5.46-2.771 1.826 0 5.625 0 5.625 10.184 0 4.175-.796 11.179-6.123 11.179-1.834 0-3.466-.55-4.962-1.677v-16.915zM340.8 97.898c10.277 0 14.754 7.377 14.754 19.146v29.176H340.8v-27.353c0-6.548-1.658-8.371-5.388-8.371-2.155 0-4.725 1.326-7.542 4.228v31.496h-14.754v-27.353c0-6.548-1.74-8.371-5.471-8.371-2.155 0-4.725 1.326-7.46 4.228v31.496h-14.753V99.059h12.018l1.078 5.968h.248c3.896-3.896 7.957-7.128 14.34-7.128 6.548 0 10.526 2.735 12.93 7.791 4.061-4.145 8.455-7.792 14.754-7.792m0-2c-5.989 0-10.454 2.956-14.295 6.542-2.935-4.396-7.34-6.542-13.389-6.542-5.842 0-9.938 2.47-13.239 5.343l-.459-2.538-.297-1.645h-15.689v51.162h18.753v-32.682c1.995-1.968 3.916-3.042 5.46-3.042 1.862 0 3.471 0 3.471 6.371v29.353H329.87v-32.665c2.061-1.979 4.011-3.059 5.542-3.059 1.817 0 3.388 0 3.388 6.371v29.353H357.554v-31.176c0-13.636-5.95-21.146-16.754-21.146z"/></g></svg>