<svg xmlns="http://www.w3.org/2000/svg" width="1028.991" height="104.364"><g fill="#FFF"><path d="M84.647 3.69L55.396 66.353v34.191h-23.14V66.353L3.135 3.69h24.701l8.06 21.58c2.601 7.281 5.07 14.041 7.801 21.582h.52c2.73-7.541 5.331-14.301 8.061-21.582l8.061-21.58h24.308m3.141-2H58.949l-.486 1.3-8.061 21.58c-.795 2.121-1.579 4.199-2.359 6.266-1.389 3.678-2.723 7.21-4.08 10.886l-.632-1.743a3079.161 3079.161 0 01-5.552-15.381L29.71 2.991l-.486-1.301H0l1.321 2.843 28.935 62.262v35.749h27.141V66.796L86.46 4.536l1.328-2.846zM131.576 2c26.391 0 44.332 18.071 44.332 49.662 0 31.722-17.941 50.702-44.332 50.702s-44.332-18.98-44.332-50.702S105.186 2 131.576 2m0 80.343c12.74 0 20.671-11.96 20.671-30.681s-7.931-29.771-20.671-29.771-20.541 11.05-20.541 29.771 7.801 30.681 20.541 30.681m0-82.343c-13.754 0-25.35 4.696-33.533 13.58-8.373 9.09-12.799 22.258-12.799 38.082 0 32.016 18.187 52.702 46.332 52.702s46.332-20.687 46.332-52.702c0-15.774-4.425-28.925-12.797-38.031C156.912 4.714 145.316 0 131.576 0zm0 80.343c-11.437 0-18.541-10.99-18.541-28.681 0-17.389 6.932-27.771 18.541-27.771 11.691 0 18.671 10.382 18.671 27.771 0 17.691-7.154 28.681-18.671 28.681zM271.327 3.69v51.352c0 32.631-13 47.322-38.741 47.322-25.871 0-39.262-14.691-39.262-47.322V3.69h23.141v53.822c0 18.33 5.461 24.83 16.121 24.83 10.53 0 16.381-6.5 16.381-24.83V3.69h22.36m2-2h-26.36v55.822c0 20.117-7.27 22.83-14.381 22.83-7.334 0-14.121-2.766-14.121-22.83V1.69h-27.141v53.352c0 16.78 3.403 28.946 10.404 37.192 6.834 8.049 17.216 12.13 30.857 12.13 27.415 0 40.741-16.134 40.741-49.322V1.69h.001zM391.053 3.69v19.371h-26.261v77.482h-23.271V23.062H315.39V3.69h75.663m2-2h-79.662v23.371h26.131v77.482h27.271V25.062h26.261V1.69h-.001zM483.483 3.69v51.352c0 32.631-13 47.322-38.741 47.322-25.871 0-39.262-14.691-39.262-47.322V3.69h23.141v53.822c0 18.33 5.461 24.83 16.121 24.83 10.53 0 16.381-6.5 16.381-24.83V3.69h22.36m2-2h-26.36v55.822c0 20.117-7.27 22.83-14.381 22.83-7.334 0-14.121-2.766-14.121-22.83V1.69H403.48v53.352c0 16.78 3.403 28.946 10.404 37.192 6.834 8.049 17.216 12.13 30.857 12.13 27.415 0 40.741-16.134 40.741-49.322V1.69h.001zM538.99 3.69c20.021 0 36.012 5.46 36.012 24.051 0 8.58-4.811 17.94-12.61 20.931v.521c9.75 2.6 17.16 9.88 17.16 22.75 0 19.762-16.771 28.602-37.831 28.602H505.19V3.69h33.8m-10.53 38.482h9.62c9.881 0 14.301-4.29 14.301-10.921 0-6.89-4.55-9.75-14.301-9.75h-9.62v20.671m0 40.561h11.57c11.181 0 16.901-4.03 16.901-12.351 0-7.931-5.591-11.181-16.901-11.181h-11.57v23.532M538.99 1.69h-35.801v100.854h38.531c11.373 0 21.036-2.504 27.944-7.24 7.776-5.333 11.887-13.411 11.887-23.361 0-11.078-5.313-19.395-14.738-23.355 6.704-4.596 10.188-13.428 10.188-20.846.001-17.287-12.788-26.052-38.011-26.052zm-8.53 21.811h7.62c10.209 0 12.301 3.098 12.301 7.75 0 5.92-4.139 8.921-12.301 8.921h-7.62V23.501zm0 37.701h9.57c13.131 0 14.901 4.641 14.901 9.181 0 4.443-1.545 10.351-14.901 10.351h-9.57V61.202zM656.9 3.69v19.371h-38.092v17.94h32.371v19.501h-32.371v20.54h39.521v19.501h-62.792V3.69H656.9m2-2h-65.362v100.854h66.792V79.043h-39.521v-16.54H653.18V39.002H620.809v-13.94H658.9V1.69zM780.787 3.69l-28.99 96.854h-27.951L694.854 3.69h24.571l11.05 44.201c2.86 10.4 4.811 20.281 7.54 30.941h.65c2.86-10.66 4.811-20.541 7.54-30.941L757.127 3.69h23.66m2.687-2h-27.913l-.375 1.521-10.921 44.201c-1.296 4.936-2.44 9.86-3.547 14.622-.752 3.234-1.519 6.536-2.345 9.893-.566-2.369-1.108-4.708-1.641-7.004-1.322-5.706-2.69-11.606-4.328-17.562L721.366 3.205l-.379-1.515H692.167l.771 2.573 28.991 96.854.427 1.427H753.285l.427-1.427 28.99-96.854.772-2.573zM814.064 3.69v96.854h-23.271V3.69h23.271m2-2h-27.271v100.854h27.271V1.69zM897.655 3.69v19.371h-38.092v17.94h32.371v19.501h-32.371v20.54h39.521v19.501h-62.792V3.69h61.363m2-2h-65.362v100.854h66.792V79.043h-39.521v-16.54H893.935V39.002H861.564v-13.94h38.092V1.69h-.001zM1026.615 3.69l-16.771 96.854h-29.251l-8.711-42.121a280.343 280.343 0 01-3.77-22.491h-.521c-1.3 7.28-2.47 15.081-3.899 22.491l-8.451 42.121h-28.73L908.961 3.69h23.661l6.11 44.201c1.3 10.141 2.6 20.281 3.899 30.682h.521c1.82-10.4 3.77-20.671 5.72-30.682l9.881-44.201h19.631l10.01 44.201c1.95 9.881 3.641 20.281 5.591 30.682h.649c1.17-10.4 2.471-20.671 3.641-30.682l6.37-44.201h21.97m2.376-2h-26.079l-.247 1.715-6.37 44.201-.004.026-.003.026c-.473 4.045-.967 8.132-1.465 12.252-.289 2.389-.582 4.811-.873 7.25l-.381-2.151c-1.026-5.803-2.088-11.803-3.214-17.506l-.005-.026-.007-.027-10.01-44.201-.353-1.559h-22.832l-.35 1.563-9.881 44.201-.006.027-.005.026a1965.715 1965.715 0 00-3.715 19.529c-.833-6.562-1.664-13.05-2.479-19.4L934.6 3.415l-.239-1.727H906.563l.427 2.356 17.551 96.854.298 1.644h32.039l.322-1.606 8.451-42.121c.743-3.85 1.419-7.819 2.068-11.709a279.328 279.328 0 002.203 11.728l8.709 42.114.33 1.595h32.564l.287-1.659 16.771-96.854.408-2.34z"/></g></svg>