<svg xmlns="http://www.w3.org/2000/svg" width="691.773" height="744.26"><g fill="#FFF"><path d="M285.665 500.71h-85.556l-3.194-88.395h-3.195l-9.23 88.395h-81.295l-8.165-88.395h-2.84l-3.904 88.395H6.279l9.23-220.455h116.439l11.006 80.23h4.97l9.229-80.23h119.28l9.232 220.455zM396.42 500.71H296.31V280.255h100.11V500.71zM542.677 500.71H410.616V280.255h100.11v149.81h36.92l-4.969 70.645zM686.804 500.71H554.743V280.255h100.11v149.81h36.92l-4.969 70.645zM106.39 740.71H6.279V520.255h100.11V740.71zM115.616 629.063c0-39.405 9.053-67.921 27.157-85.555 18.105-17.628 48.103-26.447 89.993-26.447 41.89 0 71.766 8.697 89.638 26.092 17.866 17.395 26.802 45.795 26.802 85.2s-9.229 68.576-27.689 87.508c-18.46 18.937-48.341 28.399-89.638 28.399-41.302 0-71-9.347-89.105-28.045-18.105-18.692-27.158-47.747-27.158-87.152zm124.606 55.912v-98.689h-11.36v98.689h11.36zM575.696 740.71h-90.88l-40.115-70.645v70.645h-86.266V520.255H451.8l36.92 71.355v-71.355h86.976V740.71z"/><g><path d="M100.859.41C170.284.41 205 26.381 205 78.31c0 20.775-3.831 38.271-11.48 52.48-7.655 14.215-19.82 29.52-36.49 45.92v2.46h47.15v79.54H9.02l-2.46-62.73c39.36-35.26 59.04-63.685 59.04-85.28 0-8.2-4.1-12.3-12.3-12.3-6.561 0-21.73 2.05-45.51 6.15L0 12.71C30.608 4.51 64.229.41 100.859.41zM422.091 31.775c8.609 11.346 14.484 24.741 17.63 40.18 3.139 15.445 4.715 35.401 4.715 59.86 0 24.465-1.576 44.351-4.715 59.655-3.146 15.311-9.021 28.636-17.63 39.975-8.61 11.346-20.705 19.411-36.285 24.19-15.58 4.779-35.606 7.175-60.065 7.175-24.465 0-44.484-2.396-60.064-7.175-15.58-4.779-27.675-12.844-36.285-24.19-8.61-11.339-14.491-24.664-17.63-39.975-3.146-15.304-4.715-35.189-4.715-59.655 0-24.459 1.569-44.415 4.715-59.86 3.139-15.439 9.02-28.834 17.63-40.18 8.61-11.339 20.635-19.475 36.08-24.395C280.909 2.46 300.936 0 325.535 0c24.601 0 44.69 2.46 60.271 7.38s27.674 13.056 36.285 24.395zM334.146 194.34V80.36h-14.76v113.98h14.76zM661.117 31.775c8.609 11.346 14.484 24.741 17.63 40.18 3.139 15.445 4.715 35.401 4.715 59.86 0 24.465-1.576 44.351-4.715 59.655-3.146 15.311-9.021 28.636-17.63 39.975-8.61 11.346-20.705 19.411-36.285 24.19-15.58 4.779-35.606 7.175-60.065 7.175-24.465 0-44.484-2.396-60.064-7.175-15.58-4.779-27.675-12.844-36.285-24.19-8.61-11.339-14.491-24.664-17.63-39.975-3.146-15.304-4.715-35.189-4.715-59.655 0-24.459 1.569-44.415 4.715-59.86 3.139-15.439 9.02-28.834 17.63-40.18 8.61-11.339 20.635-19.475 36.08-24.395C519.936 2.46 539.962 0 564.562 0c24.601 0 44.69 2.46 60.271 7.38s27.674 13.056 36.284 24.395zM573.172 194.34V80.36h-14.76v113.98h14.76z"/></g></g></svg>