<svg xmlns="http://www.w3.org/2000/svg" width="372.066" height="137.908"><g fill="#FFF"><path d="M48.32 2.937L32.105 37.673v18.954H19.277V37.673L3.135 2.937h13.692L21.296 14.9c1.441 4.035 2.811 7.783 4.323 11.963h.289c1.513-4.18 2.954-7.928 4.468-11.963l4.468-11.964H48.32M51.461.937H33.456l-.486 1.3-4.468 11.965c-.426 1.137-.848 2.253-1.268 3.363-.494 1.309-.976 2.585-1.456 3.869-.872-2.403-1.722-4.752-2.599-7.206L18.701 2.236l-.486-1.3H0l1.321 2.843 15.956 34.336v20.512h16.828v-20.51L50.133 3.782 51.461.937zM74.341 2c14.63 0 24.575 10.018 24.575 27.529 0 17.585-9.945 28.106-24.575 28.106S49.766 47.114 49.766 29.529C49.766 11.945 59.711 2 74.341 2m0 44.537c7.063 0 11.459-6.63 11.459-17.008 0-10.377-4.396-16.503-11.459-16.503s-11.387 6.126-11.387 16.503c0 10.378 4.324 17.008 11.387 17.008m0-46.537c-7.88 0-14.535 2.703-19.245 7.815-4.795 5.206-7.33 12.715-7.33 21.714 0 18.289 10.432 30.106 26.575 30.106s26.575-11.817 26.575-30.106c0-8.972-2.534-16.47-7.329-21.686C88.869 2.713 82.214 0 74.341 0zm0 44.537c-6.921 0-9.387-7.753-9.387-15.008 0-9.081 3.509-14.503 9.387-14.503 5.923 0 9.459 5.422 9.459 14.503 0 9.257-3.624 15.008-9.459 15.008zM151.817 2.937v28.467c0 18.089-7.206 26.232-21.476 26.232-14.342 0-21.765-8.144-21.765-26.232V2.937h12.828v29.836c0 10.162 3.027 13.765 8.937 13.765 5.838 0 9.08-3.603 9.08-13.765V2.937h12.396m2-2h-16.396v31.836c0 10.339-3.402 11.765-7.08 11.765-3.356 0-6.937-.909-6.937-11.765V.937h-16.828v30.467c0 18.733 7.995 28.232 23.765 28.232 7.791 0 13.721-2.372 17.625-7.052 3.937-4.719 5.851-11.646 5.851-21.181V.937zM218.196 2.937v10.738h-14.558v42.952h-12.9V13.675h-14.485V2.937h41.943m2-2h-45.943v14.738h14.485v42.952h16.9V15.675h14.558V.937zM269.439 2.937v28.467c0 18.089-7.206 26.232-21.476 26.232-14.342 0-21.765-8.144-21.765-26.232V2.937h12.828v29.836c0 10.162 3.027 13.765 8.937 13.765 5.838 0 9.08-3.603 9.08-13.765V2.937h12.396m2-2h-16.396v31.836c0 10.339-3.403 11.765-7.08 11.765-3.356 0-6.937-.909-6.937-11.765V.937h-16.828v30.467c0 18.733 7.996 28.232 23.765 28.232 7.791 0 13.721-2.372 17.624-7.052 3.938-4.719 5.852-11.646 5.852-21.181V.937zM300.217 2.937c11.098 0 19.962 3.027 19.962 13.333 0 4.756-2.666 9.945-6.99 11.603v.288c5.405 1.441 9.513 5.478 9.513 12.612 0 10.954-9.296 15.854-20.972 15.854h-20.25V2.937h18.737m-5.838 21.332h5.333c5.478 0 7.928-2.378 7.928-6.054 0-3.819-2.522-5.404-7.928-5.404h-5.333v11.458m0 22.485h6.414c6.198 0 9.369-2.234 9.369-6.847 0-4.396-3.1-6.197-9.369-6.197h-6.414v13.044M300.217.937H279.48v57.69h22.25c14.169 0 22.972-6.842 22.972-17.854 0-5.994-2.645-10.617-7.383-13.141 3.203-2.874 4.86-7.454 4.86-11.362 0-5.569-2.299-9.697-6.832-12.271-3.631-2.061-8.58-3.062-15.13-3.062zm-3.838 13.874h3.333c5.928 0 5.928 1.968 5.928 3.404 0 1.108 0 4.054-5.928 4.054h-3.333v-7.458zm0 20.899h4.414c7.369 0 7.369 2.628 7.369 4.197 0 1.45 0 4.847-7.369 4.847h-4.414V35.71zM365.586 2.937v10.738H344.47v9.945h17.945v10.811H344.47v11.386h21.908v10.811H331.57V2.937h34.016m2-2H329.57v57.69h38.808V43.816H346.47V36.43h17.945V21.62H346.47v-5.945h21.116V.937zM233.403 82.218l-16.071 53.69h-15.494l-16.071-53.69h13.62l6.126 24.503c1.586 5.766 2.667 11.243 4.18 17.152h.36c1.586-5.909 2.667-11.387 4.181-17.152l6.054-24.503h13.115m2.687-2h-17.369l-.375 1.521-6.054 24.503c-.719 2.736-1.355 5.474-1.971 8.12-.14.601-.279 1.205-.422 1.813-.017-.069-.032-.139-.048-.208-.736-3.174-1.497-6.455-2.41-9.776l-6.114-24.458-.379-1.515h-17.869l.771 2.573 16.071 53.69.427 1.427h18.472l.427-1.427 16.071-53.69.772-2.573zM272.972 82.218v10.738h-21.116v9.945h17.945v10.811h-17.945v11.386h21.908v10.811h-34.808v-53.69h34.016m2-2.001h-38.016v57.69h38.808v-14.811h-21.908v-7.386h17.945V100.9h-17.945v-5.945h21.116V80.218zM297.261 82.218v53.69h-12.899v-53.69h12.899m2-2h-16.899v57.69h16.899v-57.69zM369.69 82.218l-9.297 53.69h-16.215l-4.828-23.35a154.86 154.86 0 01-2.09-12.468h-.289c-.721 4.036-1.369 8.359-2.162 12.468l-4.684 23.35h-15.927l-9.729-53.69h13.116l3.387 24.503c.721 5.621 1.441 11.243 2.162 17.008h.289a905.473 905.473 0 013.171-17.008l5.477-24.503h10.882l5.55 24.503c1.081 5.478 2.018 11.243 3.099 17.008h.36c.648-5.765 1.369-11.458 2.018-17.008l3.531-24.503h12.179m2.376-2h-16.288l-.247 1.715L352 106.436l-.004.026-.003.026c-.188 1.614-.384 3.24-.581 4.876a324.137 324.137 0 00-.947-5.03l-.005-.027-.007-.027-5.55-24.503-.353-1.559h-14.083l-.35 1.563-5.477 24.503-.006.027-.005.026c-.363 1.865-.7 3.613-1.017 5.271l-.659-5.142-3.389-24.522-.239-1.727h-17.251l.428 2.356 9.729 53.69.298 1.644h19.236l.322-1.606 4.684-23.35c.101-.523.199-1.049.296-1.577.107.535.216 1.067.327 1.596l4.826 23.343.33 1.595H362.078l.287-1.659 9.297-53.69.404-2.341z"/></g></svg>